<svg width="24" height="24" viewBox="0 0 24 24" fill="none" xmlns="http://www.w3.org/2000/svg">
<g id="close">
<mask id="mask0_18_494" style="mask-type:alpha" maskUnits="userSpaceOnUse" x="0" y="0" width="24" height="24">
<rect id="Bounding box" width="24" height="24" fill="#D9D9D9"/>
</mask>
<g mask="url(#mask0_18_494)">
<path id="close_2" d="M12 13.3882L7.10005 18.2882C6.91672 18.4715 6.68338 18.5632 6.40005 18.5632C6.11672 18.5632 5.88338 18.4715 5.70005 18.2882C5.51672 18.1048 5.42505 17.8715 5.42505 17.5882C5.42505 17.3048 5.51672 17.0715 5.70005 16.8882L10.6 11.9882L5.70005 7.08818C5.51672 6.90484 5.42505 6.67151 5.42505 6.38818C5.42505 6.10484 5.51672 5.87151 5.70005 5.68818C5.88338 5.50484 6.11672 5.41318 6.40005 5.41318C6.68338 5.41318 6.91672 5.50484 7.10005 5.68818L12 10.5882L16.9 5.68818C17.0834 5.50484 17.3167 5.41318 17.6 5.41318C17.8834 5.41318 18.1167 5.50484 18.3 5.68818C18.4834 5.87151 18.575 6.10484 18.575 6.38818C18.575 6.67151 18.4834 6.90484 18.3 7.08818L13.4 11.9882L18.3 16.8882C18.4834 17.0715 18.575 17.3048 18.575 17.5882C18.575 17.8715 18.4834 18.1048 18.3 18.2882C18.1167 18.4715 17.8834 18.5632 17.6 18.5632C17.3167 18.5632 17.0834 18.4715 16.9 18.2882L12 13.3882Z" fill="#1C1B1F"/>
</g>
</g>
</svg>
