<svg width="440" height="192" viewBox="0 0 440 192" fill="none" xmlns="http://www.w3.org/2000/svg">
<path fill-rule="evenodd" clip-rule="evenodd" d="M0 0H86H96H172H182H258H268H344H354H440V144C440 170.51 418.51 192 392 192C373.162 192 356.858 181.148 349 165.355C341.142 181.148 324.838 192 306 192C287.162 192 270.858 181.148 263 165.355C255.142 181.148 238.838 192 220 192C201.162 192 184.858 181.148 177 165.355C169.142 181.148 152.838 192 134 192C115.162 192 98.8585 181.148 91 165.355C83.1415 181.148 66.8381 192 48 192C21.4903 192 0 170.51 0 144V0Z" fill="#D81921"/>
</svg>
