<svg width="102" height="17" viewBox="0 0 102 17" fill="none" xmlns="http://www.w3.org/2000/svg">
<g id="&#236;&#185;&#180;&#236;&#185;&#180;&#236;&#152;&#164;&#235;&#184;&#140;&#235;&#160;&#136;&#236;&#157;&#184;" clip-path="url(#clip0_640_336)">
<path id="Vector" d="M1.82695 16.7183H0V1.10553L1.82695 0.70105V16.7183ZM6.71867 5.38699L8.14988 6.43563L4.62987 10.9208L8.7063 15.8884L7.29294 17L2.48156 11.0197L6.71569 5.38399L6.71867 5.38699Z" fill="#FFCC00"/>
<path id="Vector_2" d="M10.3252 13.7492C10.3252 12.6317 10.6942 11.7778 11.4291 11.1935C12.1641 10.6093 13.2352 10.3157 14.6397 10.3157H16.7493V9.6086C16.7493 7.89781 16.0054 7.04392 14.5236 7.04392C14.0475 7.04392 13.5477 7.10983 13.024 7.24466C12.5003 7.37948 12.0212 7.54727 11.5838 7.74801L11.0453 6.4357C11.5898 6.1271 12.176 5.88741 12.8068 5.71963C13.4346 5.55185 14.0475 5.46796 14.6456 5.46796C17.2164 5.46796 18.5019 6.86115 18.5019 9.64755V16.7154H17.151L16.9308 15.505C16.3863 15.9484 15.8061 16.2929 15.1901 16.5356C14.5742 16.7783 13.988 16.8982 13.4316 16.8982C12.4646 16.8982 11.7058 16.6195 11.1554 16.0592C10.6049 15.499 10.3282 14.729 10.3282 13.7462M13.7619 15.4031C14.0118 15.4031 14.2737 15.3701 14.5444 15.3012C14.8152 15.2353 15.086 15.1454 15.3568 15.0376C15.6275 14.9297 15.8804 14.7979 16.1185 14.6451C16.3565 14.4893 16.5678 14.3245 16.7523 14.1507V11.5651H14.8509C13.8869 11.5651 13.1846 11.7328 12.7413 12.0684C12.3009 12.404 12.0778 12.9373 12.0778 13.6653C12.0778 14.8219 12.6372 15.4031 13.7589 15.4031" fill="#FFCC00"/>
<path id="Vector_3" d="M23.5809 16.7183H21.7539V1.10553L23.5809 0.70105V16.7183ZM28.4696 5.38699L29.9008 6.43563L26.3838 10.9208L30.4572 15.8884L29.0468 17L24.2355 11.0197L28.4696 5.38399V5.38699Z" fill="#FFCC00"/>
<path id="Vector_4" d="M32.0757 13.7492C32.0757 12.6317 32.4446 11.7778 33.1796 11.1935C33.9145 10.6093 34.9857 10.3157 36.3902 10.3157H38.4968V9.6086C38.4968 7.89781 37.7559 7.04392 36.2711 7.04392C35.7921 7.04392 35.2952 7.10983 34.7685 7.24466C34.2448 7.37948 33.7628 7.54727 33.3284 7.74801L32.7898 6.4357C33.3343 6.1271 33.9205 5.88741 34.5483 5.71963C35.1761 5.55185 35.7891 5.46796 36.3872 5.46796C38.958 5.46796 40.2434 6.86115 40.2434 9.64755V16.7154H38.8925L38.6724 15.505C38.1278 15.9484 37.5506 16.2929 36.9347 16.5356C36.3187 16.7783 35.7326 16.8982 35.1761 16.8982C34.2091 16.8982 33.4504 16.6195 32.8999 16.0592C32.3494 15.499 32.0757 14.729 32.0757 13.7462M35.5094 15.4031C35.7593 15.4031 36.0212 15.3701 36.292 15.3012C36.5627 15.2353 36.8335 15.1454 37.1043 15.0376C37.375 14.9297 37.628 14.7979 37.866 14.6451C38.104 14.4893 38.3153 14.3245 38.4998 14.1507V11.5651H36.6014C35.6374 11.5651 34.9351 11.7328 34.4918 12.0684C34.0484 12.404 33.8283 12.9373 33.8283 13.6653C33.8283 14.8219 34.3876 15.4031 35.5094 15.4031Z" fill="#FFCC00"/>
<path id="Vector_5" d="M47.6049 5.48895C49.1165 5.48895 50.3007 5.98631 51.1636 6.98402C52.0265 7.98173 52.458 9.40788 52.458 11.2655C52.458 13.1231 52.0295 14.5043 51.1755 15.487C50.3216 16.4697 49.1314 16.9611 47.6079 16.9611C46.0845 16.9611 44.9121 16.4697 44.0492 15.487C43.1863 14.5043 42.7549 13.0961 42.7549 11.2655C42.7549 9.43484 43.1893 7.97873 44.0582 6.98402C44.927 5.9893 46.1083 5.48895 47.6079 5.48895M47.6079 6.98402C46.6528 6.98402 45.9208 7.34655 45.412 8.07461C44.9002 8.80266 44.6473 9.86629 44.6473 11.2655C44.6473 12.6647 44.9032 13.6983 45.412 14.4054C45.9208 15.1125 46.6528 15.466 47.6079 15.466C48.5631 15.466 49.3129 15.1125 49.8247 14.4054C50.3335 13.6983 50.5894 12.6527 50.5894 11.2655C50.5894 9.87827 50.3335 8.79967 49.8247 8.07461C49.3129 7.34655 48.575 6.98402 47.6079 6.98402Z" fill="#FFCC00"/>
<path id="Vector_6" d="M55.8501 16.3468V1.08752L58.6322 0.584167V6.04011C59.2957 5.62065 60.1675 5.33003 61.1227 5.33003C64.0714 5.33003 65.4401 7.3584 65.4401 10.8908C65.4401 14.7169 63.3632 16.9939 59.9176 16.9939C58.3198 16.9939 56.6178 16.6793 55.8501 16.3468ZM58.6322 7.83778V14.8187C59.0666 14.8817 59.3582 14.8817 59.629 14.8817C61.3726 14.8817 62.6194 13.7731 62.6194 10.9508C62.6194 8.81751 62.1016 7.5861 60.1289 7.5861C59.507 7.5861 58.9654 7.73291 58.6352 7.83778H58.6322Z" fill="#4A4A49"/>
<path id="Vector_7" d="M70.2367 8.36215V16.6824H67.4546V5.66564H69.4482L69.8856 6.87907C70.8199 5.89634 72.1261 5.33307 73.3104 5.33307C73.6645 5.33307 73.9739 5.35404 74.2447 5.43793L73.9531 8.15542C73.5157 8.05055 73.0604 7.96666 72.3552 7.96666C71.6084 7.96666 70.8615 8.13444 70.2367 8.36514V8.36215Z" fill="#4A4A49"/>
<path id="Vector_8" d="M79.6838 9.97114H81.4275V9.59363C81.4275 8.3802 81.0525 7.69109 79.413 7.69109C78.3954 7.69109 77.4611 7.90082 76.4643 8.42214L75.6966 6.49863C76.7559 5.76758 78.3121 5.32715 79.7433 5.32715C82.5462 5.32715 84.0191 6.70536 84.0191 9.56966V16.6765H82.0672L81.7548 15.7357C80.633 16.6135 79.4309 16.9701 78.4549 16.9701C76.3156 16.9701 75.1343 15.6937 75.1343 13.5006C75.1343 11.1816 76.7113 9.96814 79.6808 9.96814L79.6838 9.97114ZM81.4275 13.923V11.7688H79.9338C78.4401 11.7688 77.6515 12.374 77.6515 13.4826C77.6515 14.2766 78.1098 14.8009 79.0232 14.8009C79.9367 14.8009 80.9335 14.3605 81.4304 13.923H81.4275Z" fill="#4A4A49"/>
<path id="Vector_9" d="M86.1587 2.07032L88.1939 0L90.2292 2.07032L88.1939 4.11967L86.1587 2.07032ZM89.5835 5.66567V16.6824H86.8014V5.66567H89.5835Z" fill="#4A4A49"/>
<path id="Vector_10" d="M92.4487 5.66564H94.4215L94.8381 6.7742C95.814 5.89634 97.1619 5.33307 98.3253 5.33307C100.774 5.33307 102 6.85809 102 9.61752V16.6824H99.218V9.53363C99.218 8.29923 98.7627 7.7779 97.2869 7.7779C96.7067 7.7779 95.8765 7.94569 95.2308 8.19736V16.6854H92.4487V5.66564Z" fill="#4A4A49"/>
</g>
<defs>
<clipPath id="clip0_640_336">
<rect width="102" height="17" fill="white"/>
</clipPath>
</defs>
</svg>
