<svg width="24" height="24" viewBox="0 0 24 24" fill="none" xmlns="http://www.w3.org/2000/svg">
<g id="s_logo">
<rect id="s_&#235;&#161;&#156;&#234;&#179;&#160;&#235;&#176;&#148;&#237;&#131;&#149;" width="24" height="24" rx="1.8" fill="#D81921"/>
<g id="s_&#237;&#152;&#184;&#235;&#158;&#145;&#236;&#157;&#180;&#235;&#161;&#156;&#234;&#179;&#160;">
<ellipse id="Ellipse 77" cx="7.10868" cy="8.04518" rx="2.71414" ry="2.71187" fill="white"/>
<path id="Ellipse 79" d="M19.8337 13.099C19.8337 16.3718 16.3266 18.5412 12.0003 18.5412C7.6741 18.5412 4.16699 16.3718 4.16699 13.099C4.16699 9.82617 7.6741 6.68927 12.0003 6.68927C16.3266 6.68927 19.8337 9.82617 19.8337 13.099Z" fill="white"/>
<ellipse id="Ellipse 78" cx="17.2864" cy="8.04518" rx="2.71414" ry="2.71187" fill="white"/>
<path id="Intersect" fill-rule="evenodd" clip-rule="evenodd" d="M12.6668 6.71422V11.5C12.6668 11.8682 12.3684 12.1667 12.0002 12.1667C11.632 12.1667 11.3335 11.8682 11.3335 11.5V6.71418C11.5532 6.69771 11.7754 6.68927 11.9999 6.68927C12.2245 6.68927 12.447 6.69773 12.6668 6.71422Z" fill="#D81921"/>
<rect id="Rectangle 4825" x="9.5" y="9.17505" width="1.33333" height="4.97593" rx="0.666667" transform="rotate(-90 9.5 9.17505)" fill="#D81921"/>
<rect id="Rectangle 4826" x="10.167" y="10.9831" width="1.33333" height="3.61886" rx="0.666667" transform="rotate(-90 10.167 10.9831)" fill="#D81921"/>
</g>
<g id="s_&#237;&#148;&#132;&#235;&#160;&#136;&#236;&#158;&#132;">
<g id="&#236;&#153;&#188;&#236;&#156;&#132;">
<rect id="Rectangle 4827" x="1.66699" y="1.66669" width="1" height="4" rx="0.5" fill="white"/>
<rect id="Rectangle 4828" x="1.66699" y="2.66669" width="1" height="4" rx="0.5" transform="rotate(-90 1.66699 2.66669)" fill="white"/>
</g>
<g id="&#236;&#153;&#188;&#236;&#149;&#132;&#235;&#158;&#152;">
<rect id="Rectangle 4827_2" width="1" height="4" rx="0.5" transform="matrix(1 0 0 -1 1.66699 22.3333)" fill="white"/>
<rect id="Rectangle 4828_2" width="1" height="4" rx="0.5" transform="matrix(-4.37114e-08 1 1 4.37114e-08 1.66699 21.3333)" fill="white"/>
</g>
<g id="&#236;&#152;&#164;&#235;&#165;&#184;&#236;&#156;&#132;">
<rect id="Rectangle 4827_3" x="22.3335" y="1.66669" width="1" height="4" rx="0.5" transform="rotate(90 22.3335 1.66669)" fill="white"/>
<rect id="Rectangle 4828_3" x="21.3335" y="1.66669" width="1" height="4" rx="0.5" fill="white"/>
</g>
<g id="&#236;&#152;&#164;&#235;&#165;&#184;&#236;&#149;&#132;&#235;&#158;&#152;">
<rect id="Rectangle 4827_4" width="1" height="4" rx="0.5" transform="matrix(-4.37114e-08 -1 -1 4.37114e-08 22.3335 22.3333)" fill="white"/>
<rect id="Rectangle 4828_4" width="1" height="4" rx="0.5" transform="matrix(1 0 0 -1 21.3335 22.3333)" fill="white"/>
</g>
</g>
</g>
</svg>
