<svg width="265" height="91" viewBox="0 0 265 91" fill="none" xmlns="http://www.w3.org/2000/svg">
<g filter="url(#filter0_d_612_995)">
<rect x="20" y="19" width="225" height="51" rx="25.5" fill="#282828" shape-rendering="crispEdges"/>
<path d="M72.125 37.3438V45.9219H70.6406V37.3438H72.125ZM67.6562 38.2031V42.1719H62.7031V43.9219C65.1484 43.8984 66.9531 43.8281 69.0781 43.5L69.2656 44.7031C66.9844 45.0781 65.0625 45.1406 62.4219 45.1406H61.25V41.0312H66.1875V39.4219H61.2188V38.2031H67.6562ZM67.4531 46.1875C70.4062 46.1875 72.2188 47.1094 72.2188 48.75C72.2188 50.3594 70.4062 51.3125 67.4531 51.2969C64.4844 51.3125 62.6875 50.3594 62.6875 48.75C62.6875 47.1094 64.4844 46.1875 67.4531 46.1875ZM67.4531 47.3594C65.375 47.3594 64.1562 47.8594 64.1562 48.75C64.1562 49.6406 65.375 50.125 67.4531 50.125C69.5312 50.125 70.7344 49.6406 70.7344 48.75C70.7344 47.8594 69.5312 47.3594 67.4531 47.3594ZM85.6094 38.6875V40.3906C85.6094 42.4375 85.6094 44.3594 85 47.2656L83.5312 47.125C83.8281 45.8438 83.9844 44.7188 84.0625 43.6719L75.6562 44.125L75.4688 42.9062L84.1406 42.5781C84.1641 41.8281 84.1641 41.1094 84.1719 40.3906V39.9062H75.8594V38.6875H85.6094ZM87.1094 48.2344V49.4531H74.3438V48.2344H87.1094ZM100.969 43.75V44.8906H88.1562V43.75H100.969ZM99.3906 45.875V48.9531H91.1719V50.1094H99.8281V51.1562H89.6875V47.9688H97.9219V46.9375H89.6719V45.875H99.3906ZM99.3594 37.6875V40.7188H91.2656V41.7812H99.5938V42.8281H89.7969V39.7344H97.875V38.7344H89.7656V37.6875H99.3594ZM118.672 44.4688V45.6719H105.906V44.4688H111.547V42.9531H107.578V37.6562H109.047V39.1719H115.531V37.6562H117.016V42.9531H113.016V44.4688H118.672ZM117.109 46.9219V51.3281H115.609V48.1094H107.328V46.9219H117.109ZM109.047 41.7656H115.531V40.2812H109.047V41.7656ZM124.594 40.8906C124.578 43.375 126.016 45.9062 128.109 46.9219L127.188 48.1094C125.664 47.3203 124.484 45.75 123.875 43.875C123.242 45.875 122.016 47.5469 120.422 48.375L119.5 47.1719C121.656 46.1406 123.109 43.4531 123.109 40.8906V38.5H124.594V40.8906ZM130.641 37.3281V42.9062H132.891V44.1719H130.641V51.3281H129.156V37.3281H130.641ZM145.5 37.3438V46H144.094V42.3125H142.5V45.7969H141.109V37.5469H142.5V41.1094H144.094V37.3438H145.5ZM140.562 38.8438V40.0312H133.484V38.8438H136.312V37.3906H137.781V38.8438H140.562ZM137.031 40.6562C138.812 40.6562 140.062 41.6094 140.062 43.0781C140.062 44.5156 138.812 45.4844 137.031 45.4844C135.281 45.4844 134.031 44.5156 134.031 43.0781C134.031 41.6094 135.281 40.6562 137.031 40.6562ZM137.031 41.75C136.047 41.75 135.359 42.25 135.359 43.0781C135.359 43.875 136.047 44.3906 137.031 44.3906C138.047 44.3906 138.719 43.875 138.719 43.0781C138.719 42.25 138.031 41.75 137.031 41.75ZM138.656 46.8281C138.641 47.9766 139.227 49.1562 140.484 49.8594C141.742 49.1016 142.359 47.8359 142.359 46.8281V46.4062H143.828V46.8281C143.828 48.1719 144.797 49.5156 146.609 50.0312L145.906 51.1562C144.516 50.7031 143.57 49.7969 143.094 48.6875C142.641 49.7656 141.805 50.7734 140.516 51.2812C139.18 50.7969 138.336 49.8516 137.906 48.75C137.391 49.8125 136.445 50.6953 135.125 51.1562L134.422 50.0312C136.203 49.4688 137.188 48.0938 137.203 46.8281V46.4062H138.656V46.8281ZM151.188 38.375C153.086 38.375 154.477 39.9844 154.703 42.5781H157.594V37.3281H159.062V51.3594H157.594V43.7812H154.719C154.555 46.5078 153.133 48.2031 151.188 48.2031C149.094 48.2031 147.625 46.2969 147.641 43.2812C147.625 40.2812 149.094 38.375 151.188 38.375ZM151.188 39.7031C149.922 39.7031 149.047 41.0781 149.047 43.2812C149.047 45.5 149.922 46.875 151.188 46.875C152.453 46.875 153.328 45.5 153.328 43.2812C153.328 41.0781 152.453 39.7031 151.188 39.7031ZM174.031 48.3438V49.5781H161.219V48.3438H164.281V44.6875C163.133 44.0547 162.438 43.0469 162.438 41.7969C162.438 39.5938 164.594 38.1406 167.594 38.1406C170.609 38.1406 172.766 39.5938 172.766 41.7969C172.766 43.0312 172.094 44.0234 170.969 44.6562V48.3438H174.031ZM167.594 39.3281C165.391 39.3281 163.875 40.2812 163.875 41.7969C163.875 43.2969 165.391 44.2812 167.594 44.2812C169.781 44.2812 171.328 43.2969 171.328 41.7969C171.328 40.2812 169.781 39.3281 167.594 39.3281ZM165.75 48.3438H169.469V45.2188C168.898 45.3672 168.266 45.4375 167.594 45.4375C166.938 45.4375 166.312 45.3672 165.75 45.2344V48.3438ZM177.625 38.6875L177.484 46.7344H175.938L175.797 38.6875H177.625ZM176.719 50.1094C176.109 50.1094 175.594 49.6094 175.609 49C175.594 48.3906 176.109 47.8906 176.719 47.8906C177.312 47.8906 177.828 48.3906 177.828 49C177.828 49.6094 177.312 50.1094 176.719 50.1094Z" fill="#F2F4F6"/>
<rect x="189" y="36.5" width="16" height="16" rx="8" fill="#F2F4F6"/>
<path d="M195.169 46.7142L193.189 44.7342C192.966 44.5115 192.605 44.5108 192.382 44.7327C192.157 44.9558 192.156 45.3189 192.38 45.5427L194.361 47.5232C194.807 47.9695 195.53 47.9695 195.977 47.5232L201.623 41.8771C201.845 41.6546 201.845 41.2938 201.623 41.0712C201.4 40.8487 201.04 40.8487 200.817 41.071L195.169 46.7142Z" fill="#282828"/>
</g>
<defs>
<filter id="filter0_d_612_995" x="0" y="0" width="265" height="91" filterUnits="userSpaceOnUse" color-interpolation-filters="sRGB">
<feFlood flood-opacity="0" result="BackgroundImageFix"/>
<feColorMatrix in="SourceAlpha" type="matrix" values="0 0 0 0 0 0 0 0 0 0 0 0 0 0 0 0 0 0 127 0" result="hardAlpha"/>
<feOffset dy="1"/>
<feGaussianBlur stdDeviation="10"/>
<feComposite in2="hardAlpha" operator="out"/>
<feColorMatrix type="matrix" values="0 0 0 0 0 0 0 0 0 0 0 0 0 0 0 0 0 0 0.05 0"/>
<feBlend mode="normal" in2="BackgroundImageFix" result="effect1_dropShadow_612_995"/>
<feBlend mode="normal" in="SourceGraphic" in2="effect1_dropShadow_612_995" result="shape"/>
</filter>
</defs>
</svg>
