<svg width="181" height="128" viewBox="0 0 181 128" fill="none" xmlns="http://www.w3.org/2000/svg">
<path d="M99.15 66.97C99.15 65.81 99.43 64.84 99.99 64.06C100.55 63.28 101.32 62.65 102.3 62.17C103.3 61.69 104.46 61.35 105.78 61.15C107.1 60.93 108.53 60.82 110.07 60.82C111.59 60.82 113.02 60.93 114.36 61.15C115.7 61.35 116.86 61.69 117.84 62.17C118.82 62.65 119.59 63.28 120.15 64.06C120.73 64.84 121.02 65.81 121.02 66.97C121.02 67.97 120.8 68.84 120.36 69.58C119.94 70.3 119.35 70.9 118.59 71.38C117.83 71.86 116.92 72.24 115.86 72.52C114.82 72.78 113.68 72.95 112.44 73.03V75.67H122.61V79.33H97.56V75.67H107.73V73.03C106.49 72.95 105.34 72.78 104.28 72.52C103.24 72.24 102.34 71.86 101.58 71.38C100.82 70.9 100.22 70.3 99.78 69.58C99.36 68.84 99.15 67.97 99.15 66.97ZM121.74 59.2H98.43V55.54H107.73V53.02H112.44V55.54H121.74V59.2ZM103.86 66.97C103.86 67.89 104.41 68.54 105.51 68.92C106.61 69.28 108.13 69.46 110.07 69.46C111.97 69.46 113.48 69.28 114.6 68.92C115.74 68.54 116.31 67.89 116.31 66.97C116.31 66.05 115.74 65.41 114.6 65.05C113.48 64.67 111.97 64.48 110.07 64.48C108.13 64.48 106.61 64.67 105.51 65.05C104.41 65.41 103.86 66.05 103.86 66.97ZM138.403 80.53C136.603 80.53 134.983 80.42 133.543 80.2C132.123 79.98 130.913 79.64 129.913 79.18C128.933 78.72 128.183 78.15 127.663 77.47C127.143 76.79 126.883 75.98 126.883 75.04C126.883 74.12 127.143 73.32 127.663 72.64C128.183 71.94 128.933 71.37 129.913 70.93C130.913 70.47 132.123 70.13 133.543 69.91C134.983 69.69 136.603 69.58 138.403 69.58C140.203 69.58 141.813 69.69 143.233 69.91C144.673 70.13 145.883 70.47 146.863 70.93C147.863 71.37 148.623 71.94 149.143 72.64C149.663 73.32 149.923 74.12 149.923 75.04C149.923 75.98 149.663 76.79 149.143 77.47C148.623 78.15 147.863 78.72 146.863 79.18C145.883 79.64 144.673 79.98 143.233 80.2C141.813 80.42 140.203 80.53 138.403 80.53ZM126.163 58.21V54.55H140.833V63.31H130.873V64.72H141.433V68.38H126.163V59.65H136.123V58.21H126.163ZM149.323 62.62V68.83H144.613V54.25H149.323V58.96H151.933V62.62H149.323ZM138.403 76.87C140.543 76.87 142.213 76.73 143.413 76.45C144.613 76.17 145.213 75.7 145.213 75.04C145.213 74.38 144.613 73.91 143.413 73.63C142.213 73.35 140.543 73.21 138.403 73.21C136.263 73.21 134.593 73.35 133.393 73.63C132.193 73.91 131.593 74.38 131.593 75.04C131.593 75.7 132.193 76.17 133.393 76.45C134.593 76.73 136.263 76.87 138.403 76.87ZM170.576 66.94C170.576 69.22 170.326 71.15 169.826 72.73C169.346 74.31 168.706 75.58 167.906 76.54C167.126 77.52 166.216 78.23 165.176 78.67C164.156 79.11 163.106 79.33 162.026 79.33C160.926 79.33 159.856 79.11 158.816 78.67C157.796 78.23 156.886 77.52 156.086 76.54C155.306 75.58 154.676 74.31 154.196 72.73C153.716 71.15 153.476 69.22 153.476 66.94C153.476 64.66 153.716 62.74 154.196 61.18C154.676 59.6 155.306 58.32 156.086 57.34C156.886 56.36 157.796 55.65 158.816 55.21C159.856 54.77 160.926 54.55 162.026 54.55C163.106 54.55 164.156 54.77 165.176 55.21C166.216 55.65 167.126 56.36 167.906 57.34C168.706 58.32 169.346 59.6 169.826 61.18C170.326 62.74 170.576 64.66 170.576 66.94ZM158.156 66.94C158.156 68.64 158.256 70.05 158.456 71.17C158.676 72.29 158.956 73.19 159.296 73.87C159.656 74.53 160.066 75 160.526 75.28C161.006 75.54 161.506 75.67 162.026 75.67C162.526 75.67 163.006 75.54 163.466 75.28C163.946 75 164.356 74.53 164.696 73.87C165.056 73.21 165.336 72.32 165.536 71.2C165.756 70.06 165.866 68.63 165.866 66.91C165.866 65.21 165.756 63.8 165.536 62.68C165.336 61.56 165.056 60.67 164.696 60.01C164.356 59.35 163.946 58.89 163.466 58.63C163.006 58.35 162.526 58.21 162.026 58.21C161.506 58.21 161.006 58.35 160.526 58.63C160.066 58.89 159.656 59.36 159.296 60.04C158.956 60.7 158.676 61.59 158.456 62.71C158.256 63.83 158.156 65.24 158.156 66.94ZM178.436 79.33H173.726V54.25H178.436V79.33ZM108.09 104.47C108.09 105.97 107.94 107.38 107.64 108.7L114.99 114.34L112.68 117.82L106.05 112.66C105.29 113.82 104.32 114.83 103.14 115.69C101.96 116.55 100.49 117.27 98.73 117.85L96.66 114.37C97.86 113.95 98.88 113.48 99.72 112.96C100.58 112.44 101.28 111.8 101.82 111.04C102.36 110.26 102.75 109.34 102.99 108.28C103.25 107.22 103.38 105.94 103.38 104.44V93.49H108.09V104.47ZM121.11 102.64H123.72V106.3H121.11V118.33H116.4V93.25H121.11V102.64ZM143.023 93.55V97.21H136.603V99.85C136.603 100.09 136.593 100.32 136.573 100.54C136.553 100.76 136.523 100.98 136.483 101.2L143.473 105.25L141.223 108.43L134.713 104.68C133.093 106.46 130.503 107.75 126.943 108.55L124.933 105.25C126.033 105.01 127.013 104.74 127.873 104.44C128.733 104.14 129.463 103.78 130.063 103.36C130.663 102.94 131.113 102.44 131.413 101.86C131.733 101.28 131.893 100.6 131.893 99.82V97.21H125.773V93.55H143.023ZM132.133 110.38V115.3H150.523V118.93H127.423V110.38H132.133ZM150.223 93.25V111.16H145.513V93.25H150.223ZM159.356 110.53V115.3H178.136V118.93H154.646V110.53H159.356ZM177.836 102.82V112.93H173.126V93.25H177.836V99.16H180.446V102.82H177.836ZM157.856 105.22V99.85H162.566V105.22H171.356V108.88H153.236V105.22H157.856ZM154.286 97.21V93.55H170.216V103.57H165.506V97.21H154.286Z" fill="white"/>
<path d="M48.534 2.838H40.414V1.13H50.732V9.236H48.534V2.838ZM39.728 10.846H43.774V5.75H45.972V10.846H51.418V12.554H39.728V10.846ZM52.656 4.434C52.656 3.874 52.7447 3.37467 52.922 2.936C53.1087 2.488 53.3653 2.11 53.692 1.802C54.028 1.494 54.434 1.26067 54.91 1.102C55.386 0.934 55.918 0.85 56.506 0.85C57.2433 0.85 57.8873 0.976 58.438 1.228C58.9887 1.48 59.4273 1.844 59.754 2.32L62.106 1.844V0.85H64.304V9.208H62.106V6.128L59.726 6.576C59.3993 7.03333 58.9607 7.388 58.41 7.64C57.8687 7.88267 57.234 8.004 56.506 8.004C55.918 8.004 55.386 7.92 54.91 7.752C54.434 7.584 54.028 7.346 53.692 7.038C53.3653 6.73 53.1087 6.35667 52.922 5.918C52.7447 5.47933 52.656 4.98467 52.656 4.434ZM55.862 8.844V11.14H64.444V12.834H53.664V8.844H55.862ZM56.506 6.296C56.982 6.296 57.374 6.13267 57.682 5.806C57.9993 5.47933 58.158 5.022 58.158 4.434C58.158 3.83667 57.9993 3.37467 57.682 3.048C57.374 2.72133 56.982 2.558 56.506 2.558C56.03 2.558 55.6333 2.72133 55.316 3.048C55.008 3.37467 54.854 3.83667 54.854 4.434C54.854 5.022 55.008 5.47933 55.316 5.806C55.6333 6.13267 56.03 6.296 56.506 6.296ZM60.356 4.434C60.356 4.50867 60.3513 4.57867 60.342 4.644C60.342 4.70933 60.3373 4.77467 60.328 4.84L62.106 4.49V3.482L60.314 3.818C60.342 4.014 60.356 4.21933 60.356 4.434ZM73.83 0.99V2.698H70.974V3.93C70.974 4.042 70.9694 4.154 70.96 4.266C70.9507 4.36867 70.9367 4.47133 70.918 4.574L74.04 6.45L72.99 7.934L70.12 6.212C69.4107 7.024 68.2394 7.61667 66.606 7.99L65.668 6.45C66.1814 6.338 66.6294 6.212 67.012 6.072C67.404 5.932 67.7307 5.764 67.992 5.568C68.2534 5.372 68.4494 5.13867 68.58 4.868C68.7107 4.59733 68.776 4.28 68.776 3.916V2.698H66.06V0.99H73.83ZM69.028 8.844V11.14H77.61V12.834H66.83V8.844H69.028ZM77.47 0.85V9.208H75.272V4.952L73.522 5.344V3.594L75.272 3.202V0.85H77.47ZM82.2813 12.54L86.3413 1.522H88.7633L92.8233 12.54H90.6253L89.3653 8.998L85.3473 10.09L84.4793 12.54H82.2813ZM86.0193 8.228L88.8193 7.472L87.5453 3.916L86.0193 8.228ZM96.36 1.522V12.54H94.148V1.522H96.36ZM101.975 1.116H112.573V2.824H110.977V7.248H112.573V8.956H101.975V7.248H103.585V2.824H101.975V1.116ZM101.429 10.846H113.119V12.554H101.429V10.846ZM105.783 7.248H108.779V2.824H105.783V7.248ZM115.281 2.838V1.13H125.879V5.89H117.479V7.248H126.019V8.956H121.539V10.846H126.285V12.554H114.595V10.846H119.341V8.956H115.281V4.182H123.681V2.838H115.281ZM136.973 9.32V8.718H128.531V7.262H139.171V10.776H130.729V11.378H139.311V12.834H128.531V9.32H136.973ZM135.769 6.464H127.383V4.756H128.433V2.698H127.383V0.99H135.769V2.698H134.719V4.756H135.769V6.464ZM139.171 0.85V6.632H136.973V0.85H139.171ZM130.631 4.756H132.521V2.698H130.631V4.756Z" fill="white"/>
</svg>
