<svg width="80" height="80" viewBox="0 0 80 80" fill="none" xmlns="http://www.w3.org/2000/svg">
<ellipse cx="23.6956" cy="26.8174" rx="9.04715" ry="9.03956" fill="white"/>
<path d="M66.1109 43.6631C66.1109 54.5726 54.4206 61.8039 39.9998 61.8039C25.579 61.8039 13.8887 54.5726 13.8887 43.6631C13.8887 32.7537 25.579 22.2974 39.9998 22.2974C54.4206 22.2974 66.1109 32.7537 66.1109 43.6631Z" fill="white"/>
<ellipse cx="57.6194" cy="26.8174" rx="9.04715" ry="9.03956" fill="white"/>
<path fill-rule="evenodd" clip-rule="evenodd" d="M42.2218 22.3805V38.3332C42.2218 39.5605 41.2269 40.5554 39.9996 40.5554C38.7723 40.5554 37.7773 39.5605 37.7773 38.3332V22.3805C38.51 22.3255 39.2512 22.2974 39.9998 22.2974C40.7482 22.2974 41.4893 22.3255 42.2218 22.3805Z" fill="#D81921"/>
<rect x="31.666" y="30.5835" width="4.44444" height="16.5864" rx="2.22222" transform="rotate(-90 31.666 30.5835)" fill="#D81921"/>
<rect x="33.8887" y="36.6104" width="4.44444" height="12.0629" rx="2.22222" transform="rotate(-90 33.8887 36.6104)" fill="#D81921"/>
</svg>
