<svg width="181" height="128" viewBox="0 0 181 128" fill="none" xmlns="http://www.w3.org/2000/svg">
<path d="M99.15 66.97C99.15 65.83 99.42 64.84 99.99 64.06C100.53 63.28 101.31 62.65 102.33 62.17C103.29 61.69 104.46 61.36 105.78 61.12C107.1 60.94 108.51 60.82 110.07 60.82C111.57 60.82 113.01 60.94 114.36 61.12C115.68 61.36 116.85 61.69 117.84 62.17C118.8 62.65 119.58 63.28 120.18 64.06C120.72 64.84 121.02 65.83 121.02 66.97C121.02 67.99 120.81 68.83 120.39 69.55C119.94 70.3 119.34 70.9 118.59 71.38C117.81 71.86 116.91 72.25 115.89 72.49C114.81 72.79 113.67 72.97 112.44 73.03V75.67H122.61V79.33H97.56V75.67H107.73V73.03C106.47 72.97 105.33 72.79 104.31 72.49C103.23 72.25 102.33 71.86 101.58 71.38C100.8 70.9 100.23 70.3 99.81 69.55C99.36 68.83 99.15 67.99 99.15 66.97ZM121.74 59.2H98.43V55.54H107.73V53.02H112.44V55.54H121.74V59.2ZM103.86 66.97C103.86 67.9 104.4 68.53 105.51 68.89C106.59 69.28 108.12 69.46 110.07 69.46C111.96 69.46 113.49 69.28 114.63 68.89C115.74 68.53 116.31 67.9 116.31 66.97C116.31 66.07 115.74 65.41 114.63 65.02C113.49 64.66 111.96 64.48 110.07 64.48C108.12 64.48 106.59 64.66 105.51 65.02C104.4 65.41 103.86 66.07 103.86 66.97ZM138.403 80.53C136.603 80.53 134.983 80.41 133.573 80.2C132.133 79.96 130.903 79.63 129.943 79.18C128.923 78.7 128.173 78.13 127.663 77.47C127.123 76.78 126.883 76 126.883 75.04C126.883 74.14 127.123 73.33 127.663 72.61C128.173 71.95 128.923 71.38 129.943 70.9C130.903 70.48 132.133 70.15 133.573 69.91C134.983 69.7 136.603 69.58 138.403 69.58C140.203 69.58 141.823 69.7 143.263 69.91C144.673 70.15 145.873 70.48 146.893 70.9C147.853 71.38 148.603 71.95 149.143 72.61C149.653 73.33 149.923 74.14 149.923 75.04C149.923 76 149.653 76.78 149.143 77.47C148.603 78.13 147.853 78.7 146.893 79.18C145.873 79.63 144.673 79.96 143.263 80.2C141.823 80.41 140.203 80.53 138.403 80.53ZM126.163 58.21V54.55H140.833V63.31H130.873V64.72H141.433V68.38H126.163V59.65H136.123V58.21H126.163ZM149.323 62.62V68.83H144.613V54.25H149.323V58.96H151.933V62.62H149.323ZM138.403 76.87C140.533 76.87 142.213 76.72 143.413 76.45C144.613 76.15 145.213 75.7 145.213 75.04C145.213 74.38 144.613 73.93 143.413 73.63C142.213 73.36 140.533 73.21 138.403 73.21C136.243 73.21 134.593 73.36 133.393 73.63C132.193 73.93 131.593 74.38 131.593 75.04C131.593 75.7 132.193 76.15 133.393 76.45C134.593 76.72 136.243 76.87 138.403 76.87ZM170.576 66.94C170.576 69.22 170.336 71.17 169.856 72.73C169.346 74.32 168.716 75.61 167.936 76.57C167.126 77.53 166.226 78.22 165.206 78.67C164.156 79.09 163.106 79.33 162.026 79.33C160.916 79.33 159.866 79.09 158.846 78.67C157.796 78.22 156.896 77.53 156.116 76.57C155.306 75.61 154.676 74.32 154.196 72.73C153.716 71.17 153.476 69.22 153.476 66.94C153.476 64.66 153.716 62.74 154.196 61.15C154.676 59.59 155.306 58.33 156.116 57.34C156.896 56.38 157.796 55.66 158.846 55.21C159.866 54.79 160.916 54.55 162.026 54.55C163.106 54.55 164.156 54.79 165.206 55.21C166.226 55.66 167.126 56.38 167.936 57.34C168.716 58.33 169.346 59.59 169.856 61.15C170.336 62.74 170.576 64.66 170.576 66.94ZM158.156 66.94C158.156 68.65 158.246 70.06 158.486 71.17C158.666 72.31 158.966 73.18 159.326 73.84C159.656 74.53 160.076 75.01 160.556 75.25C161.006 75.55 161.486 75.67 162.026 75.67C162.506 75.67 163.016 75.55 163.496 75.25C163.946 75.01 164.366 74.53 164.726 73.87C165.056 73.21 165.326 72.31 165.566 71.17C165.746 70.06 165.866 68.65 165.866 66.91C165.866 65.23 165.746 63.82 165.566 62.68C165.326 61.57 165.056 60.67 164.726 60.01C164.366 59.35 163.946 58.9 163.496 58.6C163.016 58.36 162.506 58.21 162.026 58.21C161.486 58.21 161.006 58.36 160.556 58.6C160.076 58.9 159.656 59.35 159.326 60.01C158.966 60.7 158.666 61.6 158.486 62.71C158.246 63.85 158.156 65.26 158.156 66.94ZM178.436 79.33H173.726V54.25H178.436V79.33ZM108.09 104.47C108.09 105.97 107.94 107.38 107.64 108.7L114.99 114.34L112.68 117.82L106.05 112.66C105.27 113.83 104.31 114.85 103.14 115.69C101.94 116.53 100.47 117.25 98.73 117.85L96.66 114.37C97.86 113.95 98.88 113.5 99.75 112.96C100.59 112.45 101.28 111.79 101.82 111.01C102.36 110.26 102.75 109.36 103.02 108.28C103.26 107.23 103.38 105.94 103.38 104.44V93.49H108.09V104.47ZM121.11 102.64H123.72V106.3H121.11V118.33H116.4V93.25H121.11V102.64ZM143.023 93.55V97.21H136.603V99.85C136.603 100.09 136.573 100.33 136.573 100.54C136.543 100.78 136.513 100.99 136.483 101.2L143.473 105.25L141.223 108.43L134.713 104.68C133.093 106.48 130.483 107.77 126.943 108.55L124.933 105.25C126.013 105.01 127.003 104.74 127.873 104.44C128.713 104.14 129.463 103.78 130.063 103.36C130.663 102.94 131.113 102.46 131.443 101.86C131.743 101.29 131.893 100.6 131.893 99.82V97.21H125.773V93.55H143.023ZM132.133 110.38V115.3H150.523V118.93H127.423V110.38H132.133ZM150.223 93.25V111.16H145.513V93.25H150.223ZM159.356 110.53V115.3H178.136V118.93H154.646V110.53H159.356ZM177.836 102.82V112.93H173.126V93.25H177.836V99.16H180.446V102.82H177.836ZM157.856 105.22V99.85H162.566V105.22H171.356V108.88H153.236V105.22H157.856ZM154.286 97.21V93.55H170.216V103.57H165.506V97.21H154.286Z" fill="white"/>
<path d="M21.356 12.834V10.258H12.914V8.564H23.554V12.834H21.356ZM17.058 3.23C17.058 3.566 17.016 3.902 16.946 4.252L20.068 6.24L18.934 7.696L16.134 5.904C15.77 6.324 15.322 6.674 14.762 6.982C14.202 7.29 13.502 7.542 12.69 7.71L11.752 6.17C12.844 5.946 13.628 5.596 14.132 5.12C14.608 4.658 14.86 4.028 14.86 3.216V0.821999H17.058V3.23ZM23.554 0.85V7.934H21.356V4.168L18.836 4.742V2.936L21.356 2.362V0.85H23.554ZM28.278 7.78V8.606H34.102V7.78H36.3V12.834H26.08V7.78H28.278ZM27.69 2.586V3.286H32.758V4.882H27.69V5.568H32.898V7.164H25.492V0.99H32.758V2.586H27.69ZM36.3 4.616V7.15H34.102V0.85H36.3V2.908H37.518V4.616H36.3ZM34.102 11.14V10.3H28.278V11.14H34.102ZM45.784 12.554V0.85H47.8V5.806L49.032 5.372V0.85H51.062V12.554H49.032V7.262L47.8 7.696V12.554H45.784ZM44.944 1.13V2.838H40.674V10.706H45.084V12.414H38.658V1.13H44.944ZM52.6128 6.044H57.3588V5.26H53.4388V0.99H63.4768V2.698H55.6368V3.552H63.6168V5.26H59.5568V6.044H64.3028V7.752H52.6128V6.044ZM58.4648 13.114C57.6248 13.114 56.8688 13.072 56.2248 12.988C55.5528 12.904 55.0068 12.764 54.5588 12.596C54.0968 12.4 53.7468 12.162 53.5228 11.868C53.2708 11.56 53.1588 11.196 53.1588 10.762C53.1588 10.342 53.2708 9.978 53.5228 9.67C53.7468 9.376 54.0968 9.138 54.5588 8.942C55.0068 8.76 55.5528 8.62 56.2248 8.536C56.8688 8.466 57.6248 8.424 58.4648 8.424C59.3048 8.424 60.0468 8.466 60.7188 8.536C61.3628 8.62 61.9228 8.76 62.3848 8.942C62.8328 9.138 63.1688 9.376 63.4208 9.67C63.6448 9.978 63.7708 10.342 63.7708 10.762C63.7708 11.196 63.6448 11.56 63.4208 11.868C63.1688 12.162 62.8328 12.4 62.3848 12.596C61.9228 12.764 61.3628 12.904 60.7188 12.988C60.0468 13.072 59.3048 13.114 58.4648 13.114ZM58.4648 11.406C59.5288 11.406 60.3268 11.35 60.8308 11.266C61.3208 11.168 61.5728 11 61.5728 10.762C61.5728 10.524 61.3208 10.356 60.8308 10.258C60.3268 10.174 59.5288 10.118 58.4648 10.118C57.3868 10.118 56.6028 10.174 56.1128 10.258C55.6088 10.356 55.3568 10.524 55.3568 10.762C55.3568 11 55.6088 11.168 56.1128 11.266C56.6028 11.35 57.3868 11.406 58.4648 11.406ZM72.2888 1.13V2.838H70.0908V6.086C70.0908 6.478 70.0768 6.828 70.0488 7.164C70.0068 7.514 69.9508 7.85 69.8948 8.172L72.7228 10.832L71.5048 12.316L69.1948 10.048C68.8868 10.552 68.5088 11 68.0468 11.378C67.5708 11.756 66.9968 12.078 66.3248 12.33L65.3588 10.706C65.8068 10.51 66.1988 10.3 66.5208 10.048C66.8288 9.81 67.0948 9.502 67.3048 9.138C67.5008 8.788 67.6548 8.368 67.7528 7.864C67.8368 7.374 67.8928 6.772 67.8928 6.072V2.838H65.7788V1.13H72.2888ZM73.2968 12.554V6.506L71.3228 7.192V5.442L73.2968 4.756V0.85H75.3128V12.554H73.2968ZM78.3648 12.554H76.3348V0.85H78.3648V12.554ZM88.3888 12.414V2.838H83.4608V1.13H90.5868V12.414H88.3888ZM94.6888 12.554H92.4908V0.85H94.6888V12.554ZM107.855 8.144V12.834H97.2148V8.144H107.855ZM107.855 0.85V7.514H105.657V5.05L102.661 5.358V3.902L105.657 3.552V2.964L102.661 3.286V1.83L105.657 1.466V0.85H107.855ZM103.613 5.596V7.304H96.6268V0.99H98.8248V5.596H103.613ZM99.4128 9.838V11.14H105.657V9.838H99.4128ZM112.666 12.54L116.726 1.522H119.148L123.208 12.54H121.01L119.75 8.998L115.732 10.09L114.864 12.54H112.666ZM116.404 8.228L119.204 7.472L117.93 3.916L116.404 8.228ZM126.745 1.522V12.54H124.533V1.522H126.745ZM132.36 1.116H142.958V2.824H141.362V7.248H142.958V8.956H132.36V7.248H133.97V2.824H132.36V1.116ZM131.814 10.846H143.504V12.554H131.814V10.846ZM136.168 7.248H139.164V2.824H136.168V7.248ZM145.666 2.838V1.13H156.264V5.89H147.864V7.248H156.404V8.956H151.924V10.846H156.67V12.554H144.98V10.846H149.726V8.956H145.666V4.182H154.066V2.838H145.666ZM167.358 9.32V8.718H158.916V7.262H169.556V10.776H161.114V11.378H169.696V12.834H158.916V9.32H167.358ZM166.154 6.464H157.768V4.756H158.818V2.698H157.768V0.99H166.154V2.698H165.104V4.756H166.154V6.464ZM169.556 0.85V6.632H167.358V0.85H169.556ZM161.016 4.756H162.906V2.698H161.016V4.756Z" fill="white"/>
</svg>
