<svg width="390" height="285" viewBox="0 0 390 285" fill="none" xmlns="http://www.w3.org/2000/svg">
<path d="M-25.5 0H70.5V237C70.5 263.51 49.0097 285 22.5 285C-4.00967 285 -25.5 263.51 -25.5 237V0Z" fill="#D81921"/>
<path d="M60.5 0H156.5V237C156.5 263.51 135.01 285 108.5 285C81.9903 285 60.5 263.51 60.5 237V0Z" fill="#D81921"/>
<path d="M146.5 0H242.5V237C242.5 263.51 221.01 285 194.5 285C167.99 285 146.5 263.51 146.5 237V0Z" fill="#D81921"/>
<path d="M232.5 0H328.5V237C328.5 263.51 307.01 285 280.5 285C253.99 285 232.5 263.51 232.5 237V0Z" fill="#D81921"/>
<path d="M318.5 0H414.5V237C414.5 263.51 393.01 285 366.5 285C339.99 285 318.5 263.51 318.5 237V0Z" fill="#D81921"/>
</svg>
