<svg width="242" height="78" viewBox="0 0 242 78" fill="none" xmlns="http://www.w3.org/2000/svg">
<rect width="78" height="78" rx="10" fill="#F5F5F5"/>
<path d="M12 78C12 64.7452 22.7452 54 36 54H42C55.2548 54 66 64.7452 66 78H12Z" fill="#D9D9D9"/>
<ellipse cx="39.2432" cy="38.7437" rx="20.5601" ry="17.7437" fill="#D9D9D9"/>
<ellipse cx="32.766" cy="39.0254" rx="1.68987" ry="2.25317" fill="white"/>
<ellipse cx="45.7211" cy="39.0254" rx="1.68987" ry="2.25317" fill="white"/>
<path d="M44.032 45.4209C44.032 47.7997 41.8884 49.7281 39.244 49.7281C36.5997 49.7281 34.4561 47.7997 34.4561 45.4209C34.4561 43.0421 36.5997 44.5904 39.244 44.5904C41.8884 44.5904 44.032 43.0421 44.032 45.4209Z" fill="white"/>
<circle cx="64" cy="13" r="9" fill="#21DA49"/>
<mask id="mask0_559_6757" style="mask-type:alpha" maskUnits="userSpaceOnUse" x="55" y="4" width="18" height="18">
<rect x="55" y="4" width="18" height="18" fill="#D9D9D9"/>
</mask>
<g mask="url(#mask0_559_6757)">
<path d="M62.1632 17.5002L57.8882 13.2252L58.9569 12.1564L62.1632 15.3627L69.0444 8.48145L70.1132 9.5502L62.1632 17.5002Z" fill="white"/>
</g>
<rect x="82" width="78" height="78" rx="10" fill="#F5F5F5"/>
<path d="M114.187 38.9786C114.187 35.196 117.253 32.1296 121.036 32.1296C124.818 32.1296 127.885 35.196 127.885 38.9786V54.3254C127.885 55.3061 127.09 56.1011 126.109 56.1011H115.962C114.982 56.1011 114.187 55.3061 114.187 54.3254V38.9786Z" fill="#D9D9D9"/>
<ellipse cx="121.245" cy="27.2151" rx="7.20159" ry="6.21507" fill="#D9D9D9"/>
<ellipse cx="118.975" cy="27.3136" rx="0.591912" ry="0.789216" fill="white"/>
<ellipse cx="123.513" cy="27.3136" rx="0.591912" ry="0.789216" fill="white"/>
<path d="M122.922 29.554C122.922 30.3872 122.171 31.0626 121.244 31.0626C120.318 31.0626 119.567 30.3872 119.567 29.554C119.567 28.7207 120.318 29.2631 121.244 29.2631C122.171 29.2631 122.922 28.7207 122.922 29.554Z" fill="white"/>
<mask id="mask1_559_6757" style="mask-type:alpha" maskUnits="userSpaceOnUse" x="135" y="3" width="20" height="20">
<rect x="135" y="3" width="20" height="20" fill="#D9D9D9"/>
</mask>
<g mask="url(#mask1_559_6757)">
<path d="M145 21.3334C143.847 21.3334 142.764 21.1147 141.75 20.6772C140.736 20.2397 139.854 19.6459 139.104 18.8959C138.354 18.1459 137.76 17.264 137.323 16.2501C136.885 15.2362 136.667 14.1529 136.667 13.0001C136.667 11.8473 136.885 10.764 137.323 9.75008C137.76 8.73619 138.354 7.85425 139.104 7.10425C139.854 6.35425 140.736 5.7605 141.75 5.323C142.764 4.8855 143.847 4.66675 145 4.66675C146.153 4.66675 147.236 4.8855 148.25 5.323C149.264 5.7605 150.146 6.35425 150.896 7.10425C151.646 7.85425 152.239 8.73619 152.677 9.75008C153.114 10.764 153.333 11.8473 153.333 13.0001C153.333 14.1529 153.114 15.2362 152.677 16.2501C152.239 17.264 151.646 18.1459 150.896 18.8959C150.146 19.6459 149.264 20.2397 148.25 20.6772C147.236 21.1147 146.153 21.3334 145 21.3334ZM145 19.6667C146.861 19.6667 148.437 19.0209 149.729 17.7292C151.021 16.4376 151.667 14.8612 151.667 13.0001C151.667 12.2501 151.545 11.5279 151.302 10.8334C151.059 10.139 150.708 9.50008 150.25 8.91675L140.917 18.2501C141.5 18.7084 142.139 19.0591 142.833 19.3022C143.528 19.5452 144.25 19.6667 145 19.6667ZM139.75 17.0834L149.083 7.75008C148.5 7.29175 147.861 6.94105 147.167 6.698C146.472 6.45494 145.75 6.33341 145 6.33341C143.139 6.33341 141.562 6.97925 140.271 8.27092C138.979 9.56258 138.333 11.139 138.333 13.0001C138.333 13.7501 138.455 14.4723 138.698 15.1667C138.941 15.8612 139.292 16.5001 139.75 17.0834Z" fill="#D81921"/>
</g>
<rect x="164" width="78" height="78" rx="10" fill="#F5F5F5"/>
<path d="M175.753 67.315C175.753 59.6435 181.972 53.4246 189.644 53.4246C197.315 53.4246 203.534 59.6435 203.534 67.315V77.9999H175.753V67.315Z" fill="#D9D9D9"/>
<ellipse cx="189.419" cy="44.1875" rx="12.7893" ry="11.0373" fill="#D9D9D9"/>
<ellipse cx="185.389" cy="44.3627" rx="1.05117" ry="1.40156" fill="white"/>
<ellipse cx="193.448" cy="44.3627" rx="1.05117" ry="1.40156" fill="white"/>
<path d="M192.397 48.3408C192.397 49.8205 191.064 51.02 189.419 51.02C187.774 51.02 186.44 49.8205 186.44 48.3408C186.44 46.8611 187.774 47.8242 189.419 47.8242C191.064 47.8242 192.397 46.8611 192.397 48.3408Z" fill="white"/>
<path d="M202.466 60.9041C202.466 53.2326 208.685 47.0137 216.356 47.0137C224.028 47.0137 230.247 53.2326 230.247 60.9041V78H202.466V60.9041Z" fill="#D9D9D9"/>
<ellipse cx="215.764" cy="37.3623" rx="12.7893" ry="11.0373" fill="#D9D9D9"/>
<ellipse cx="211.734" cy="37.5375" rx="1.05117" ry="1.40156" fill="white"/>
<ellipse cx="219.793" cy="37.5375" rx="1.05117" ry="1.40156" fill="white"/>
<path d="M218.742 41.5156C218.742 42.9953 217.409 44.1948 215.764 44.1948C214.119 44.1948 212.786 42.9953 212.786 41.5156C212.786 40.0359 214.119 40.999 215.764 40.999C217.409 40.999 218.742 40.0359 218.742 41.5156Z" fill="white"/>
<mask id="mask2_559_6757" style="mask-type:alpha" maskUnits="userSpaceOnUse" x="217" y="3" width="20" height="20">
<rect x="217" y="3" width="20" height="20" fill="#D9D9D9"/>
</mask>
<g mask="url(#mask2_559_6757)">
<path d="M227 21.3334C225.847 21.3334 224.764 21.1147 223.75 20.6772C222.736 20.2397 221.854 19.6459 221.104 18.8959C220.354 18.1459 219.76 17.264 219.323 16.2501C218.885 15.2362 218.667 14.1529 218.667 13.0001C218.667 11.8473 218.885 10.764 219.323 9.75008C219.76 8.73619 220.354 7.85425 221.104 7.10425C221.854 6.35425 222.736 5.7605 223.75 5.323C224.764 4.8855 225.847 4.66675 227 4.66675C228.153 4.66675 229.236 4.8855 230.25 5.323C231.264 5.7605 232.146 6.35425 232.896 7.10425C233.646 7.85425 234.239 8.73619 234.677 9.75008C235.114 10.764 235.333 11.8473 235.333 13.0001C235.333 14.1529 235.114 15.2362 234.677 16.2501C234.239 17.264 233.646 18.1459 232.896 18.8959C232.146 19.6459 231.264 20.2397 230.25 20.6772C229.236 21.1147 228.153 21.3334 227 21.3334ZM227 19.6667C228.861 19.6667 230.437 19.0209 231.729 17.7292C233.021 16.4376 233.667 14.8612 233.667 13.0001C233.667 12.2501 233.545 11.5279 233.302 10.8334C233.059 10.139 232.708 9.50008 232.25 8.91675L222.917 18.2501C223.5 18.7084 224.139 19.0591 224.833 19.3022C225.528 19.5452 226.25 19.6667 227 19.6667ZM221.75 17.0834L231.083 7.75008C230.5 7.29175 229.861 6.94105 229.167 6.698C228.472 6.45494 227.75 6.33341 227 6.33341C225.139 6.33341 223.562 6.97925 222.271 8.27092C220.979 9.56258 220.333 11.139 220.333 13.0001C220.333 13.7501 220.455 14.4723 220.698 15.1667C220.941 15.8612 221.292 16.5001 221.75 17.0834Z" fill="#D81921"/>
</g>
</svg>
