<svg width="160" height="160" viewBox="0 0 160 160" fill="none" xmlns="http://www.w3.org/2000/svg">
<g id="&#234;&#183;&#184;&#235;&#166;&#188;_&#236;&#130;&#172;&#236;&#167;&#132;&#236;&#149;&#136;&#235;&#130;&#180;&#236;&#130;&#172;&#237;&#149;&#173;">
<g id="&#236;&#130;&#172;&#236;&#167;&#132;&#236;&#149;&#132;&#236;&#157;&#180;&#236;&#189;&#152;">
<rect id="&#236;&#130;&#172;&#236;&#167;&#132;&#236;&#149;&#132;&#236;&#157;&#180;&#236;&#189;&#152;_&#235;&#176;&#149;&#236;&#138;&#164;" width="78" height="78" rx="10" fill="#F5F5F5"/>
<g id="&#236;&#130;&#172;&#236;&#167;&#132;&#236;&#149;&#132;&#236;&#157;&#180;&#236;&#189;&#152;_&#236;&#130;&#172;&#235;&#158;&#140;">
<path id="Rectangle 4835" d="M12 78C12 64.7452 22.7452 54 36 54H42C55.2548 54 66 64.7452 66 78H12Z" fill="#D9D9D9"/>
<ellipse id="Ellipse 85" cx="39.2432" cy="38.7437" rx="20.5601" ry="17.7437" fill="#D9D9D9"/>
<ellipse id="Ellipse 82" cx="32.766" cy="39.0255" rx="1.68987" ry="2.25317" fill="white"/>
<ellipse id="Ellipse 83" cx="45.7211" cy="39.0255" rx="1.68987" ry="2.25317" fill="white"/>
<path id="Ellipse 84" d="M44.032 45.421C44.032 47.7998 41.8884 49.7282 39.244 49.7282C36.5997 49.7282 34.4561 47.7998 34.4561 45.421C34.4561 43.0422 36.5997 44.5905 39.244 44.5905C41.8884 44.5905 44.032 43.0422 44.032 45.421Z" fill="white"/>
</g>
</g>
<g id="Group 697">
<g id="&#236;&#130;&#172;&#236;&#167;&#132;&#236;&#149;&#132;&#236;&#157;&#180;&#236;&#189;&#152;_2">
<rect id="&#236;&#130;&#172;&#236;&#167;&#132;&#236;&#149;&#132;&#236;&#157;&#180;&#236;&#189;&#152;_&#235;&#176;&#149;&#236;&#138;&#164;_2" y="82" width="78" height="78" rx="10" fill="#F5F5F5"/>
<g id="&#236;&#130;&#172;&#236;&#167;&#132;&#236;&#149;&#132;&#236;&#157;&#180;&#236;&#189;&#152;_&#236;&#130;&#172;&#235;&#158;&#140;_2">
<path id="Rectangle 4835_2" d="M12 160C12 146.745 22.7452 136 36 136H42C55.2548 136 66 146.745 66 160H12Z" fill="#D9D9D9"/>
<ellipse id="Ellipse 85_2" cx="39.2432" cy="120.744" rx="20.5601" ry="17.7437" fill="#D9D9D9"/>
<ellipse id="Ellipse 82_2" cx="32.766" cy="121.026" rx="1.68987" ry="2.25317" fill="white"/>
<ellipse id="Ellipse 83_2" cx="45.7211" cy="121.026" rx="1.68987" ry="2.25317" fill="white"/>
<path id="Ellipse 84_2" d="M44.032 127.421C44.032 129.8 41.8884 131.728 39.244 131.728C36.5997 131.728 34.4561 129.8 34.4561 127.421C34.4561 125.042 36.5997 126.59 39.244 126.59C41.8884 126.59 44.032 125.042 44.032 127.421Z" fill="white"/>
</g>
</g>
<g id="Group 696">
<circle id="Ellipse 96" cx="32.5" cy="120.5" r="5" stroke="#505050"/>
<circle id="Ellipse 97" cx="45.5" cy="120.5" r="5" stroke="#505050"/>
<line id="Line 1" x1="37" y1="120.5" x2="41" y2="120.5" stroke="#505050"/>
</g>
</g>
<g id="&#236;&#130;&#172;&#236;&#167;&#132;&#236;&#149;&#132;&#236;&#157;&#180;&#236;&#189;&#152;_3">
<rect id="&#236;&#130;&#172;&#236;&#167;&#132;&#236;&#149;&#132;&#236;&#157;&#180;&#236;&#189;&#152;_&#235;&#176;&#149;&#236;&#138;&#164;_3" x="82" width="78" height="78" rx="10" fill="#F5F5F5"/>
<g id="&#236;&#130;&#172;&#236;&#167;&#132;&#236;&#149;&#132;&#236;&#157;&#180;&#236;&#189;&#152;_&#236;&#130;&#172;&#235;&#158;&#140;_3">
<path id="Rectangle 4835_3" d="M114.187 38.9786C114.187 35.196 117.253 32.1296 121.036 32.1296C124.818 32.1296 127.885 35.196 127.885 38.9786V54.3254C127.885 55.3061 127.09 56.1011 126.109 56.1011H115.962C114.982 56.1011 114.187 55.3061 114.187 54.3254V38.9786Z" fill="#D9D9D9"/>
<ellipse id="Ellipse 85_3" cx="121.245" cy="27.2151" rx="7.20159" ry="6.21507" fill="#D9D9D9"/>
<ellipse id="Ellipse 82_3" cx="118.975" cy="27.3137" rx="0.591912" ry="0.789216" fill="white"/>
<ellipse id="Ellipse 83_3" cx="123.513" cy="27.3137" rx="0.591912" ry="0.789216" fill="white"/>
<path id="Ellipse 84_3" d="M122.922 29.5538C122.922 30.3871 122.171 31.0625 121.244 31.0625C120.318 31.0625 119.567 30.3871 119.567 29.5538C119.567 28.7206 120.318 29.2629 121.244 29.2629C122.171 29.2629 122.922 28.7206 122.922 29.5538Z" fill="white"/>
</g>
</g>
<g id="Group 695">
<rect id="&#236;&#130;&#172;&#236;&#167;&#132;&#236;&#149;&#132;&#236;&#157;&#180;&#236;&#189;&#152;_&#235;&#176;&#149;&#236;&#138;&#164;_4" x="82" y="82" width="78" height="78" rx="10" fill="#F5F5F5"/>
<g id="&#236;&#130;&#172;&#236;&#167;&#132;&#236;&#149;&#132;&#236;&#157;&#180;&#236;&#189;&#152;_&#236;&#130;&#172;&#235;&#158;&#140;_4">
<path id="Rectangle 4835_4" d="M93.7534 149.315C93.7534 141.644 99.9724 135.425 107.644 135.425C115.315 135.425 121.534 141.644 121.534 149.315V160H93.7534V149.315Z" fill="#D9D9D9"/>
<ellipse id="Ellipse 85_4" cx="107.419" cy="126.187" rx="12.7893" ry="11.0373" fill="#D9D9D9"/>
<ellipse id="Ellipse 82_4" cx="103.389" cy="126.363" rx="1.05117" ry="1.40156" fill="white"/>
<ellipse id="Ellipse 83_4" cx="111.448" cy="126.363" rx="1.05117" ry="1.40156" fill="white"/>
<path id="Ellipse 84_4" d="M110.397 130.341C110.397 131.82 109.064 133.02 107.419 133.02C105.774 133.02 104.44 131.82 104.44 130.341C104.44 128.861 105.774 129.824 107.419 129.824C109.064 129.824 110.397 128.861 110.397 130.341Z" fill="white"/>
</g>
<g id="&#236;&#130;&#172;&#236;&#167;&#132;&#236;&#149;&#132;&#236;&#157;&#180;&#236;&#189;&#152;_&#236;&#130;&#172;&#235;&#158;&#140;_5">
<path id="Rectangle 4835_5" d="M120.466 142.904C120.466 135.233 126.685 129.014 134.356 129.014C142.028 129.014 148.247 135.233 148.247 142.904V160H120.466V142.904Z" fill="#D9D9D9"/>
<ellipse id="Ellipse 85_5" cx="133.764" cy="119.362" rx="12.7893" ry="11.0373" fill="#D9D9D9"/>
<ellipse id="Ellipse 82_5" cx="129.734" cy="119.538" rx="1.05117" ry="1.40156" fill="white"/>
<ellipse id="Ellipse 83_5" cx="137.793" cy="119.538" rx="1.05117" ry="1.40156" fill="white"/>
<path id="Ellipse 84_5" d="M136.742 123.516C136.742 124.995 135.409 126.195 133.764 126.195C132.119 126.195 130.786 124.995 130.786 123.516C130.786 122.036 132.119 122.999 133.764 122.999C135.409 122.999 136.742 122.036 136.742 123.516Z" fill="white"/>
</g>
</g>
<g id="Group 704">
<circle id="Ellipse 108" cx="64" cy="14" r="9" fill="#21DA49"/>
<g id="check">
<mask id="mask0_384_4105" style="mask-type:alpha" maskUnits="userSpaceOnUse" x="55" y="5" width="18" height="18">
<rect id="Bounding box" x="55" y="5" width="18" height="18" fill="#D9D9D9"/>
</mask>
<g mask="url(#mask0_384_4105)">
<path id="check_2" d="M62.1632 18.5003L57.8882 14.2253L58.9569 13.1566L62.1632 16.3628L69.0444 9.48157L70.1132 10.5503L62.1632 18.5003Z" fill="white"/>
</g>
</g>
</g>
<g id="block">
<mask id="mask1_384_4105" style="mask-type:alpha" maskUnits="userSpaceOnUse" x="54" y="86" width="20" height="20">
<rect id="Bounding box_2" x="54" y="86" width="20" height="20" fill="#D9D9D9"/>
</mask>
<g mask="url(#mask1_384_4105)">
<path id="block_2" d="M63.9998 104.333C62.8471 104.333 61.7637 104.115 60.7498 103.677C59.7359 103.24 58.854 102.646 58.104 101.896C57.354 101.146 56.7603 100.264 56.3228 99.2501C55.8853 98.2363 55.6665 97.1529 55.6665 96.0001C55.6665 94.8474 55.8853 93.764 56.3228 92.7501C56.7603 91.7363 57.354 90.8543 58.104 90.1043C58.854 89.3543 59.7359 88.7606 60.7498 88.3231C61.7637 87.8856 62.8471 87.6668 63.9998 87.6668C65.1526 87.6668 66.2359 87.8856 67.2498 88.3231C68.2637 88.7606 69.1457 89.3543 69.8957 90.1043C70.6457 90.8543 71.2394 91.7363 71.6769 92.7501C72.1144 93.764 72.3332 94.8474 72.3332 96.0001C72.3332 97.1529 72.1144 98.2363 71.6769 99.2501C71.2394 100.264 70.6457 101.146 69.8957 101.896C69.1457 102.646 68.2637 103.24 67.2498 103.677C66.2359 104.115 65.1526 104.333 63.9998 104.333ZM63.9998 102.667C65.8609 102.667 67.4373 102.021 68.729 100.729C70.0207 99.4376 70.6665 97.8613 70.6665 96.0001C70.6665 95.2501 70.545 94.5279 70.3019 93.8335C70.0589 93.139 69.7082 92.5001 69.2498 91.9168L59.9165 101.25C60.4998 101.708 61.1387 102.059 61.8332 102.302C62.5276 102.545 63.2498 102.667 63.9998 102.667ZM58.7498 100.083L68.0832 90.7501C67.4998 90.2918 66.8609 89.9411 66.1665 89.6981C65.4721 89.455 64.7498 89.3335 63.9998 89.3335C62.1387 89.3335 60.5623 89.9793 59.2707 91.271C57.979 92.5626 57.3332 94.139 57.3332 96.0001C57.3332 96.7501 57.4547 97.4724 57.6978 98.1668C57.9408 98.8613 58.2915 99.5001 58.7498 100.083Z" fill="#D81921"/>
</g>
</g>
<g id="block_3">
<mask id="mask2_384_4105" style="mask-type:alpha" maskUnits="userSpaceOnUse" x="136" y="86" width="20" height="20">
<rect id="Bounding box_3" x="136" y="86" width="20" height="20" fill="#D9D9D9"/>
</mask>
<g mask="url(#mask2_384_4105)">
<path id="block_4" d="M146 104.333C144.847 104.333 143.764 104.115 142.75 103.677C141.736 103.24 140.854 102.646 140.104 101.896C139.354 101.146 138.76 100.264 138.323 99.2501C137.885 98.2363 137.667 97.1529 137.667 96.0001C137.667 94.8474 137.885 93.764 138.323 92.7501C138.76 91.7363 139.354 90.8543 140.104 90.1043C140.854 89.3543 141.736 88.7606 142.75 88.3231C143.764 87.8856 144.847 87.6668 146 87.6668C147.153 87.6668 148.236 87.8856 149.25 88.3231C150.264 88.7606 151.146 89.3543 151.896 90.1043C152.646 90.8543 153.239 91.7363 153.677 92.7501C154.114 93.764 154.333 94.8474 154.333 96.0001C154.333 97.1529 154.114 98.2363 153.677 99.2501C153.239 100.264 152.646 101.146 151.896 101.896C151.146 102.646 150.264 103.24 149.25 103.677C148.236 104.115 147.153 104.333 146 104.333ZM146 102.667C147.861 102.667 149.437 102.021 150.729 100.729C152.021 99.4376 152.667 97.8613 152.667 96.0001C152.667 95.2501 152.545 94.5279 152.302 93.8335C152.059 93.139 151.708 92.5001 151.25 91.9168L141.917 101.25C142.5 101.708 143.139 102.059 143.833 102.302C144.528 102.545 145.25 102.667 146 102.667ZM140.75 100.083L150.083 90.7501C149.5 90.2918 148.861 89.9411 148.167 89.6981C147.472 89.455 146.75 89.3335 146 89.3335C144.139 89.3335 142.562 89.9793 141.271 91.271C139.979 92.5626 139.333 94.139 139.333 96.0001C139.333 96.7501 139.455 97.4724 139.698 98.1668C139.941 98.8613 140.292 99.5001 140.75 100.083Z" fill="#D81921"/>
</g>
</g>
<g id="block_5">
<mask id="mask3_384_4105" style="mask-type:alpha" maskUnits="userSpaceOnUse" x="136" y="4" width="20" height="20">
<rect id="Bounding box_4" x="136" y="4" width="20" height="20" fill="#D9D9D9"/>
</mask>
<g mask="url(#mask3_384_4105)">
<path id="block_6" d="M146 22.3335C144.847 22.3335 143.764 22.1147 142.75 21.6772C141.736 21.2397 140.854 20.646 140.104 19.896C139.354 19.146 138.76 18.264 138.323 17.2501C137.885 16.2363 137.667 15.1529 137.667 14.0001C137.667 12.8474 137.885 11.764 138.323 10.7501C138.76 9.73625 139.354 8.85431 140.104 8.10431C140.854 7.35431 141.736 6.76056 142.75 6.32306C143.764 5.88556 144.847 5.66681 146 5.66681C147.153 5.66681 148.236 5.88556 149.25 6.32306C150.264 6.76056 151.146 7.35431 151.896 8.10431C152.646 8.85431 153.239 9.73625 153.677 10.7501C154.114 11.764 154.333 12.8474 154.333 14.0001C154.333 15.1529 154.114 16.2363 153.677 17.2501C153.239 18.264 152.646 19.146 151.896 19.896C151.146 20.646 150.264 21.2397 149.25 21.6772C148.236 22.1147 147.153 22.3335 146 22.3335ZM146 20.6668C147.861 20.6668 149.437 20.021 150.729 18.7293C152.021 17.4376 152.667 15.8613 152.667 14.0001C152.667 13.2501 152.545 12.5279 152.302 11.8335C152.059 11.139 151.708 10.5001 151.25 9.91681L141.917 19.2501C142.5 19.7085 143.139 20.0592 143.833 20.3022C144.528 20.5453 145.25 20.6668 146 20.6668ZM140.75 18.0835L150.083 8.75014C149.5 8.29181 148.861 7.94111 148.167 7.69806C147.472 7.455 146.75 7.33348 146 7.33348C144.139 7.33348 142.562 7.97931 141.271 9.27098C139.979 10.5626 139.333 12.139 139.333 14.0001C139.333 14.7501 139.455 15.4724 139.698 16.1668C139.941 16.8613 140.292 17.5001 140.75 18.0835Z" fill="#D81921"/>
</g>
</g>
</g>
</svg>
